<svg width="76" height="79" viewBox="0 0 76 79" fill="none" xmlns="http://www.w3.org/2000/svg">
<g opacity="0.1">
<path opacity="0.1" d="M75 76.1829V78H73.1828" stroke="#20263C" stroke-miterlimit="10"/>
<path opacity="0.1" d="M69.6878 78.0001H1.56168" stroke="#20263C" stroke-miterlimit="10" stroke-dasharray="5.77 5.77"/>
<path opacity="0.1" d="M3.31224 1H71.4383" stroke="#20263C" stroke-miterlimit="10" stroke-dasharray="5.77 5.77"/>
<path opacity="0.1" d="M73.1828 1H75V2.81718" stroke="#20263C" stroke-miterlimit="10"/>
<path opacity="0.1" d="M75 6.30615V74.4383" stroke="#20263C" stroke-miterlimit="10" stroke-dasharray="5.77 5.77"/>
</g>
<path d="M33.55 39.5182C33.55 40.1103 33.7257 40.689 34.0548 41.1813C34.3838 41.6735 34.8516 42.057 35.3987 42.2833C35.9458 42.5096 36.5477 42.5685 37.1284 42.4526C37.709 42.3366 38.2421 42.051 38.6604 41.6319C39.0786 41.2128 39.3632 40.6791 39.4779 40.0982C39.5927 39.5174 39.5326 38.9155 39.3051 38.3689C39.0777 37.8222 38.6933 37.3553 38.2004 37.0272C37.7075 36.6992 37.1284 36.5247 36.5363 36.5259C35.7438 36.5275 34.9842 36.8435 34.4244 37.4045C33.8645 37.9655 33.55 38.7256 33.55 39.5182Z" fill="#414042"/>
<path d="M36.5363 48.8705C35.9445 48.8705 35.366 49.046 34.8739 49.3747C34.3818 49.7036 33.9983 50.1709 33.7718 50.7176C33.5453 51.2644 33.486 51.8661 33.6015 52.4466C33.717 53.027 34.002 53.5601 34.4204 53.9786C34.8389 54.3971 35.3721 54.6821 35.9525 54.7976C36.533 54.913 37.1346 54.8538 37.6814 54.6273C38.2282 54.4008 38.6955 54.0173 39.0243 53.5252C39.3531 53.0331 39.5286 52.4546 39.5286 51.8628C39.5286 51.0692 39.2133 50.3081 38.6521 49.7469C38.091 49.1858 37.3299 48.8705 36.5363 48.8705Z" fill="#414042"/>
<path d="M45.7192 36.5259C45.1273 36.5259 44.5488 36.7014 44.0568 37.0302C43.5647 37.359 43.1811 37.8263 42.9546 38.3731C42.7282 38.9198 42.6689 39.5215 42.7844 40.102C42.8998 40.6824 43.1848 41.2156 43.6033 41.634C44.0217 42.0525 44.555 42.3375 45.1354 42.453C45.7158 42.5684 46.3175 42.5092 46.8642 42.2827C47.411 42.0562 47.8783 41.6727 48.2071 41.1806C48.5359 40.6886 48.7115 40.11 48.7115 39.5182C48.7115 38.7246 48.3962 37.9635 47.835 37.4023C47.2738 36.8412 46.5127 36.5259 45.7192 36.5259Z" fill="#414042"/>
<path d="M36.5363 30.0022C37.1284 30.0034 37.7075 29.8289 38.2004 29.5008C38.6933 29.1727 39.0777 28.7058 39.3051 28.1592C39.5326 27.6125 39.5927 27.0107 39.4779 26.4298C39.3632 25.849 39.0786 25.3152 38.6604 24.8961C38.2421 24.4771 37.709 24.1915 37.1284 24.0755C36.5477 23.9595 35.9458 24.0185 35.3987 24.2448C34.8516 24.4711 34.3838 24.8546 34.0548 25.3468C33.7257 25.839 33.55 26.4178 33.55 27.0099C33.55 27.8024 33.8645 28.5626 34.4244 29.1236C34.9842 29.6846 35.7438 30.0005 36.5363 30.0022Z" fill="#414042"/>
<path d="M30.2852 39.173C30.2852 38.5811 30.1098 38.0026 29.781 37.5105C29.4522 37.0185 28.9849 36.6349 28.4381 36.4084C27.8913 36.182 27.2897 36.1227 26.7092 36.2382C26.1287 36.3536 25.5956 36.6386 25.1771 37.0571C24.7586 37.4755 24.4737 38.0087 24.3582 38.5892C24.2428 39.1696 24.302 39.7713 24.5285 40.318C24.755 40.8648 25.1385 41.3321 25.6305 41.6609C26.1226 41.9897 26.7012 42.1653 27.2929 42.1653C28.0866 42.1653 28.8477 41.85 29.4089 41.2888C29.97 40.7276 30.2852 39.9665 30.2852 39.173Z" fill="#414042"/>
<path d="M43.3447 43.5948C42.2743 42.5178 41.6734 41.061 41.6734 39.5425C41.6734 38.024 42.2743 36.5672 43.3447 35.4902C43.7621 35.0712 44.0458 34.5381 44.1604 33.958C44.2749 33.3778 44.2149 32.7768 43.988 32.2307C43.7613 31.6846 43.3777 31.218 42.8859 30.8897C42.3941 30.5614 41.816 30.3862 41.2247 30.3862C40.6334 30.3862 40.0553 30.5614 39.5635 30.8897C39.0717 31.218 38.6881 31.6846 38.4613 32.2307C38.2345 32.7768 38.1745 33.3778 38.289 33.958C38.4036 34.5381 38.6873 35.0712 39.1046 35.4902C39.6423 36.0229 40.0692 36.657 40.3605 37.3557C40.6517 38.0543 40.8017 38.8038 40.8017 39.5607C40.8017 40.3176 40.6517 41.0671 40.3605 41.7657C40.0692 42.4644 39.6423 43.0984 39.1046 43.6312C38.6873 44.0501 38.4036 44.5833 38.289 45.1634C38.1745 45.7436 38.2345 46.3446 38.4613 46.8907C38.6881 47.4368 39.0717 47.9034 39.5635 48.2317C40.0553 48.56 40.6334 48.7351 41.2247 48.7351C41.816 48.7351 42.3941 48.56 42.8859 48.2317C43.3777 47.9034 43.7613 47.4368 43.988 46.8907C44.2149 46.3446 44.2749 45.7436 44.1604 45.1634C44.0458 44.5833 43.7621 44.0501 43.3447 43.6312V43.5948Z" fill="#414042"/>
<path d="M34.7313 45.3393C34.7281 44.5537 34.4196 43.8 33.8712 43.2374C32.8007 42.1604 32.1999 40.7036 32.1999 39.1851C32.1999 37.6666 32.8007 36.2098 33.8712 35.1328C34.2885 34.7139 34.5723 34.1806 34.6868 33.6005C34.8013 33.0204 34.7413 32.4194 34.5145 31.8733C34.2877 31.3272 33.9042 30.8606 33.4123 30.5323C32.9205 30.204 32.3424 30.0288 31.7511 30.0288C31.1598 30.0288 30.5818 30.204 30.0899 30.5323C29.5981 30.8606 29.2146 31.3272 28.9877 31.8733C28.7609 32.4194 28.701 33.0204 28.8155 33.6005C28.93 34.1806 29.2138 34.7139 29.6311 35.1328C30.1679 35.6655 30.5939 36.2991 30.8847 36.9972C31.1754 37.6953 31.3251 38.4441 31.3251 39.2002C31.3251 39.9565 31.1754 40.7052 30.8847 41.4033C30.5939 42.1014 30.1679 42.7351 29.6311 43.2677C29.2866 43.6176 29.0335 44.0468 28.8941 44.5177C28.7547 44.9884 28.7333 45.4863 28.8317 45.9674C28.9302 46.4484 29.1456 46.8978 29.4588 47.2759C29.772 47.6541 30.1734 47.9493 30.6277 48.1356C31.082 48.3219 31.5751 48.3937 32.0637 48.3444C32.5522 48.2951 33.0211 48.1263 33.429 47.8529C33.8369 47.5796 34.1712 47.2101 34.4026 46.777C34.6339 46.3439 34.7552 45.8606 34.7555 45.3696L34.7313 45.3393Z" fill="#414042"/>
</svg>
